<svg xmlns="http://www.w3.org/2000/svg" width="231.615" height="68" viewBox="0 0 231.615 68">
  <g id="logo" transform="translate(0 -0.117)">
    <g id="Group_30384" data-name="Group 30384" transform="translate(0 0.117)">
      <path id="Path_75797" data-name="Path 75797" d="M1672.33,355.975a2.954,2.954,0,0,0-2.339-.942h-2.532V365.2h2.532a2.954,2.954,0,0,0,2.339-.942c.715-.8.735-2.315.735-4.238s-.02-3.238-.735-4.042m1.431,9.811a4.875,4.875,0,0,1-3.557,1.314h-4.833V353.13h4.833a4.872,4.872,0,0,1,3.557,1.314c1.489,1.511,1.392,3.552,1.392,5.573s.1,4.258-1.392,5.769" transform="translate(-1579.986 -333.951)" fill="#981b33"/>
      <path id="Path_75798" data-name="Path 75798" d="M1898.856,353.749a2.861,2.861,0,0,0-4.1,0c-.677.745-.813,1.531-.813,4.336s.136,3.591.813,4.336a2.863,2.863,0,0,0,4.1,0c.676-.745.812-1.529.812-4.336s-.136-3.591-.812-4.336m1.585,9.948a5.153,5.153,0,0,1-7.25,0c-1.353-1.375-1.334-2.925-1.334-5.612s-.018-4.238,1.334-5.612a5.154,5.154,0,0,1,7.25,0c1.353,1.374,1.314,2.923,1.314,5.612s.039,4.238-1.314,5.612" transform="translate(-1794.107 -331.921)" fill="#981b33"/>
      <path id="Path_75799" data-name="Path 75799" d="M2133.623,367.1V361h-5.586v6.1h-2.089V353.127h2.089v5.966h5.586v-5.966h2.089V367.1Z" transform="translate(-2015.416 -333.948)" fill="#981b33"/>
      <path id="Path_75800" data-name="Path 75800" d="M2346.332,356.286l-2.145,6.2h4.233Zm3.615,10.811-.947-2.806h-5.432l-.947,2.806H2340.4l5.045-13.971h1.682l5.045,13.971Z" transform="translate(-2218.156 -333.948)" fill="#981b33"/>
      <rect id="Rectangle_18142" data-name="Rectangle 18142" width="2.089" height="13.971" transform="translate(140.599 19.18)" fill="#981b33"/>
      <path id="Path_75801" data-name="Path 75801" d="M2789.089,367.1l-6.359-9.831V367.1h-2.089V353.127h1.914l6.36,9.811v-9.811H2791V367.1Z" transform="translate(-2634.361 -333.948)" fill="#981b33"/>
      <path id="Path_75802" data-name="Path 75802" d="M3018.7,365.182a6.178,6.178,0,0,1-4.871-1.843l1.392-1.393a4.5,4.5,0,0,0,3.518,1.334c1.8,0,2.841-.784,2.841-2.139a1.892,1.892,0,0,0-.541-1.452,2.377,2.377,0,0,0-1.507-.589l-1.624-.234a4.69,4.69,0,0,1-2.61-1.12,3.5,3.5,0,0,1-1-2.669c0-2.432,1.74-4.1,4.6-4.1a5.68,5.68,0,0,1,4.272,1.589l-1.334,1.334a4,4,0,0,0-3-1.079,2.21,2.21,0,0,0-2.513,2.179,1.669,1.669,0,0,0,.523,1.294,3.039,3.039,0,0,0,1.546.648l1.567.236a4.521,4.521,0,0,1,2.571,1.04,3.682,3.682,0,0,1,1.12,2.865c0,2.57-2.069,4.1-4.948,4.1" transform="translate(-2854.821 -331.915)" fill="#981b33"/>
      <path id="Path_75803" data-name="Path 75803" d="M3228.512,355.039v12.067h-2.087V355.039h-3.789v-1.9h9.666v1.9Z" transform="translate(-3052.221 -333.957)" fill="#981b33"/>
      <rect id="Rectangle_18143" data-name="Rectangle 18143" width="2.089" height="13.971" transform="translate(182.453 19.18)" fill="#981b33"/>
      <path id="Path_75804" data-name="Path 75804" d="M3530.736,355.039v12.067h-2.087V355.039h-3.788v-1.9h9.666v1.9Z" transform="translate(-3337.943 -333.957)" fill="#981b33"/>
      <path id="Path_75805" data-name="Path 75805" d="M3746.374,367.219a4.7,4.7,0,0,1-4.93-4.827v-9.261h2.087v9.163a2.856,2.856,0,1,0,5.7,0v-9.163h2.089v9.261a4.715,4.715,0,0,1-4.949,4.827" transform="translate(-3542.701 -333.952)" fill="#981b33"/>
      <path id="Path_75806" data-name="Path 75806" d="M3967.786,355.039v12.067H3965.7V355.039h-3.788v-1.9h9.666v1.9Z" transform="translate(-3751.129 -333.957)" fill="#981b33"/>
      <path id="Path_75807" data-name="Path 75807" d="M4182.38,367.1V353.127h8.8v1.9h-6.708v4.081h5.721V361h-5.721v4.2h6.708v1.9Z" transform="translate(-3959.561 -333.948)" fill="#981b33"/>
      <path id="Path_75808" data-name="Path 75808" d="M1668.573,729.731v2.88h3.87V733.9h-3.87v4h-1.413v-9.45h5.95v1.288Z" transform="translate(-1581.679 -688.771)" fill="#981b33"/>
      <path id="Path_75809" data-name="Path 75809" d="M1800.96,728.858a1.938,1.938,0,0,0-2.772,0c-.458.5-.549,1.036-.549,2.933s.092,2.429.549,2.933a1.936,1.936,0,0,0,2.772,0c.458-.5.549-1.035.549-2.933s-.092-2.429-.549-2.933m1.072,6.729a3.484,3.484,0,0,1-4.9,0c-.916-.929-.9-1.977-.9-3.8s-.013-2.867.9-3.8a3.484,3.484,0,0,1,4.9,0c.915.929.889,1.978.889,3.8s.026,2.867-.889,3.8" transform="translate(-1703.698 -687.394)" fill="#981b33"/>
      <path id="Path_75810" data-name="Path 75810" d="M1960.635,729.735h-2.093v2.96h2.093a1.483,1.483,0,1,0,0-2.96m1.634,8.163-1.961-3.982h-1.766V737.9h-1.412v-9.45h3.609a2.681,2.681,0,0,1,2.89,2.76,2.475,2.475,0,0,1-1.857,2.509l2.145,4.181Z" transform="translate(-1855.816 -688.775)" fill="#981b33"/>
      <path id="Path_75811" data-name="Path 75811" d="M2171.134,735.518a3.53,3.53,0,0,1-5.008.066c-.915-.929-.9-1.977-.9-3.8s-.013-2.867.9-3.8a3.436,3.436,0,0,1,5.832,1.925h-1.425a1.909,1.909,0,0,0-1.961-1.646,1.855,1.855,0,0,0-1.373.584c-.458.5-.562,1.035-.562,2.933s.1,2.442.563,2.947a1.847,1.847,0,0,0,1.373.571,1.959,1.959,0,0,0,1.516-.664,2.157,2.157,0,0,0,.471-1.487v-.531h-1.987V731.4h3.4v1.447a3.574,3.574,0,0,1-.837,2.668" transform="translate(-2052.547 -687.39)" fill="#981b33"/>
      <path id="Path_75812" data-name="Path 75812" d="M2330.348,729.735h-2.092v2.96h2.092a1.483,1.483,0,1,0,0-2.96m1.635,8.163-1.961-3.982h-1.766V737.9h-1.412v-9.45h3.609a2.681,2.681,0,0,1,2.89,2.76,2.475,2.475,0,0,1-1.857,2.509l2.145,4.181Z" transform="translate(-2205.342 -688.775)" fill="#981b33"/>
      <path id="Path_75813" data-name="Path 75813" d="M2467.337,730.583l-1.452,4.194h2.864Zm2.445,7.314-.641-1.9h-3.674l-.641,1.9h-1.5l3.413-9.45h1.138l3.413,9.45Z" transform="translate(-2334.368 -688.775)" fill="#981b33"/>
      <path id="Path_75814" data-name="Path 75814" d="M2638.04,730.37a2,2,0,0,0-1.582-.637h-1.713v6.875h1.713a2,2,0,0,0,1.582-.637c.484-.544.5-1.566.5-2.867s-.013-2.19-.5-2.734m.968,6.636a3.3,3.3,0,0,1-2.406.889h-3.269v-9.45h3.269a3.3,3.3,0,0,1,2.406.889c1.007,1.022.941,2.4.941,3.77s.066,2.88-.941,3.9" transform="translate(-2495.096 -688.773)" fill="#981b33"/>
      <path id="Path_75815" data-name="Path 75815" d="M2793.508,737.973a3.179,3.179,0,0,1-3.334-3.265v-6.265h1.412v6.2a1.932,1.932,0,1,0,3.858,0v-6.2h1.412v6.265a3.189,3.189,0,0,1-3.347,3.265" transform="translate(-2643.372 -688.771)" fill="#981b33"/>
      <path id="Path_75816" data-name="Path 75816" d="M2938.089,730.583l-1.452,4.194h2.864Zm2.445,7.314-.641-1.9h-3.674l-.641,1.9h-1.5l3.413-9.45h1.138l3.413,9.45Z" transform="translate(-2779.416 -688.775)" fill="#981b33"/>
      <path id="Path_75817" data-name="Path 75817" d="M3078.6,729.731v8.163h-1.412v-8.163h-2.563v-1.288h6.539v1.288Z" transform="translate(-2912.295 -688.771)" fill="#981b33"/>
      <path id="Path_75818" data-name="Path 75818" d="M3223.8,737.9v-9.45h5.95v1.288h-4.538v2.76h3.871v1.274h-3.871v2.84h4.538V737.9Z" transform="translate(-3053.323 -688.775)" fill="#981b33"/>
      <path id="Path_75819" data-name="Path 75819" d="M3413.868,736.591a4.182,4.182,0,0,1-3.3-1.247l.941-.943a3.048,3.048,0,0,0,2.38.9c1.216,0,1.923-.531,1.923-1.446a1.283,1.283,0,0,0-.367-.982,1.607,1.607,0,0,0-1.02-.4l-1.1-.159a3.173,3.173,0,0,1-1.766-.757,2.372,2.372,0,0,1-.679-1.805c0-1.646,1.177-2.774,3.112-2.774a3.843,3.843,0,0,1,2.89,1.076l-.9.9a2.71,2.71,0,0,0-2.026-.73,1.5,1.5,0,0,0-1.7,1.474,1.134,1.134,0,0,0,.353.876,2.067,2.067,0,0,0,1.046.438l1.06.159a3.056,3.056,0,0,1,1.739.7,2.492,2.492,0,0,1,.758,1.938c0,1.739-1.4,2.774-3.347,2.774" transform="translate(-3229.896 -687.389)" fill="#981b33"/>
      <path id="Path_75820" data-name="Path 75820" d="M3555.819,729.731v8.163h-1.412v-8.163h-2.563v-1.288h6.538v1.288Z" transform="translate(-3363.454 -688.771)" fill="#981b33"/>
      <path id="Path_75821" data-name="Path 75821" d="M3701.721,737.973a3.178,3.178,0,0,1-3.334-3.265v-6.265h1.412v6.2a1.932,1.932,0,1,0,3.857,0v-6.2h1.412v6.265a3.189,3.189,0,0,1-3.347,3.265" transform="translate(-3501.995 -688.771)" fill="#981b33"/>
      <path id="Path_75822" data-name="Path 75822" d="M3867.352,730.37a2,2,0,0,0-1.582-.637h-1.713v6.875h1.713a2,2,0,0,0,1.582-.637c.484-.544.5-1.566.5-2.867s-.013-2.19-.5-2.734m.968,6.636a3.3,3.3,0,0,1-2.406.889h-3.269v-9.45h3.269a3.3,3.3,0,0,1,2.406.889c1.007,1.022.942,2.4.942,3.77s.065,2.88-.942,3.9" transform="translate(-3657.284 -688.773)" fill="#981b33"/>
      <rect id="Rectangle_18144" data-name="Rectangle 18144" width="1.412" height="9.45" transform="translate(214.068 39.672)" fill="#981b33"/>
      <path id="Path_75823" data-name="Path 75823" d="M4092.522,737.9v-9.45h5.949v1.288h-4.537v2.76h3.871v1.274h-3.871v2.84h4.537V737.9Z" transform="translate(-3874.61 -688.775)" fill="#981b33"/>
      <path id="Path_75824" data-name="Path 75824" d="M4225.113,736.591a4.181,4.181,0,0,1-3.295-1.247l.941-.943a3.048,3.048,0,0,0,2.38.9c1.216,0,1.922-.531,1.922-1.446a1.281,1.281,0,0,0-.366-.982,1.606,1.606,0,0,0-1.02-.4l-1.1-.159a3.165,3.165,0,0,1-1.765-.757,2.368,2.368,0,0,1-.681-1.805c0-1.646,1.177-2.774,3.112-2.774a3.843,3.843,0,0,1,2.89,1.076l-.9.9a2.709,2.709,0,0,0-2.026-.73,1.5,1.5,0,0,0-1.7,1.474,1.134,1.134,0,0,0,.354.876,2.068,2.068,0,0,0,1.046.438l1.06.159a3.059,3.059,0,0,1,1.739.7,2.493,2.493,0,0,1,.758,1.938c0,1.739-1.4,2.774-3.348,2.774" transform="translate(-3996.846 -687.389)" fill="#981b33"/>
      <path id="Path_75825" data-name="Path 75825" d="M771.942,597.762l-2.325-1.633V610.3H768.5V597.748l-2.238-1.619v14.178h-1.17l-7-10.181H751.01l-1.241,2.473h7.273l4.952,7.708H749.662l-1.017,2.45h23.3Z" transform="translate(-707.768 -563.682)" fill="#981b33"/>
      <path id="Path_75826" data-name="Path 75826" d="M616.18,610.305V596.13l2.34,1.633v15Z" transform="translate(-582.535 -563.682)" fill="#981b33"/>
      <path id="Path_75827" data-name="Path 75827" d="M13.191,734.223l-2.34,1.937v4.611H2.737v-4.6L.4,734.131v9.093H13.191Z" transform="translate(-0.375 -694.148)" fill="#981b33"/>
      <path id="Path_75828" data-name="Path 75828" d="M264.912,605.388v4.917h-1.534V605l-2.34,1.631v3.669H259.5v-4.052l-2.34,1.631v2.421h-6.977V597.762l-2.34-1.633v14.175h0v2.453h19.4v-2.453h0v-6.548Z" transform="translate(-234.315 -563.682)" fill="#981b33"/>
      <path id="Path_75829" data-name="Path 75829" d="M397.707,65.792l4.709-6.32,4.762,6.32Z" transform="translate(-375.991 -56.327)" fill="#981b33"/>
      <path id="Path_75830" data-name="Path 75830" d="M767.354,250.971l2.238,1.666v15.089H749.8l1.017-2.451h12.331l-4.951-7.708h-7.4l1.19-2.524H759.2l7.05,10.232h1.107Z" transform="translate(-708.86 -237.37)" fill="#981b33"/>
      <path id="Path_75831" data-name="Path 75831" d="M2.552,335.736v-7.708H6.283l3.952,7.708Zm28.791-1.549L25.548,325.5H13.931l-1.266,2.527,1.509,3.29,1.6-3.29h8.647l4.975,7.708H12.962L7.705,325.512H.2v12.675H29.856Z" transform="translate(-0.191 -307.83)" fill="#981b33"/>
      <path id="Path_75832" data-name="Path 75832" d="M1132.422,954.947V940.66l2.34,1.633V957.4Z" transform="translate(-1070.588 -889.4)" fill="#981b33"/>
      <path id="Path_75833" data-name="Path 75833" d="M1132.422,265.534V251.247l2.34,1.633v15.107Z" transform="translate(-1070.588 -237.631)" fill="#981b33"/>
      <path id="Path_75834" data-name="Path 75834" d="M24.23,956.949H.2V941.816l2.35-1.633V954.5H24.23Z" transform="translate(-0.191 -888.949)" fill="#981b33"/>
      <path id="Path_75835" data-name="Path 75835" d="M618.161,940.21V954.5H610.91l5.806-7.577-2.5-2.455h-10.2l-2.36,2.419,5.763,7.613h-7.223V940.184l-2.458,1.633V954.5h-3.4v-6.679l-2.34,1.633v7.5H620.4V941.807Zm-4.429,6.66-4.542,6.012-4.541-6.012Z" transform="translate(-559.668 -888.95)" fill="#981b33"/>
      <path id="Path_75836" data-name="Path 75836" d="M580.484,686.225l-2.429,1.563s0,2.2-.007,2.341a28.185,28.185,0,0,1-3.529,12.8,29.3,29.3,0,0,1-3.356,5.236A28.518,28.518,0,0,0,580.141,693a16.2,16.2,0,0,0,.351-2.44Z" transform="translate(-539.975 -648.858)" fill="#981b33"/>
      <path id="Path_75837" data-name="Path 75837" d="M556.887,325.624,552.472,338.3h7.9v7.779l2.441-1.52V325.624Zm3.484,10.263h-4.438l2.473-7.742h1.965Z" transform="translate(-522.306 -307.947)" fill="#981b33"/>
      <path id="Path_75838" data-name="Path 75838" d="M55.9,1.88,48.225,12.061H45.461l5.92-7.726-2.5-2.455h-10.2L36.441,4.3l5.751,7.762H39.448L31.757,1.88H15.36l1.725,2.406H30.615L36.5,12.061H20.668L12.939,1.88H4.278L2.572,4.286h9.284l5.8,7.775H2.431L.2,14.444h49.02L56.994,4.287h5.03v7.079L56.146,6.649,54.736,8.4l6.987,5.7.379.344H64.38V1.88ZM39.314,4.286H48.4L43.856,10.3Z" transform="translate(-0.191 -1.88)" fill="#981b33"/>
      <rect id="Rectangle_18145" data-name="Rectangle 18145" width="2.452" height="2.452" transform="translate(25.204 65.541)" fill="#981b33"/>
      <rect id="Rectangle_18146" data-name="Rectangle 18146" width="2.452" height="2.452" transform="translate(28.785 65.541)" fill="#981b33"/>
      <rect id="Rectangle_18147" data-name="Rectangle 18147" width="2.34" height="2.34" transform="translate(0 36.869)" fill="#981b33"/>
      <rect id="Rectangle_18148" data-name="Rectangle 18148" width="2.34" height="2.34" transform="translate(0 33.452)" fill="#981b33"/>
      <rect id="Rectangle_18149" data-name="Rectangle 18149" width="2.34" height="2.34" transform="translate(0.021 14.098)" fill="#981b33"/>
      <rect id="Rectangle_18150" data-name="Rectangle 18150" width="2.34" height="2.34" transform="translate(3.43 14.098)" fill="#981b33"/>
    </g>
  </g>
</svg>
