<svg version="1.2" xmlns="http://www.w3.org/2000/svg" viewBox="0 0 536 101" width="536" height="101">
	<title>trust-pilot (1)</title>
	<style>
		.s0 { fill: #720070 } 
		.s1 { fill: #dcdce6 } 
		.s2 { fill: #ffffff } 
	</style>
	<g>
		<g id="Layer_1">
			<g id="Layer_1-2">
				<g id="Trustpilot_ratings_4halfstar-RGB">
					<g>
						<path id="Rectangle-path" fill-rule="evenodd" class="s0" d="m11.7 2.2h96v96h-96z"/>
						<path fill-rule="evenodd" class="s0" d="m115.7 2.2h96v96h-96z"/>
						<path fill-rule="evenodd" class="s0" d="m219.7 2.2h96v96h-96z"/>
						<path fill-rule="evenodd" class="s0" d="m323.7 2.2h96v96h-96z"/>
						<g id="Half">
							<path fill-rule="evenodd" class="s1" d="m475.7 2.2h48v96h-48z"/>
							<path fill-rule="evenodd" class="s0" d="m506 2.2v96h-78.3v-96z"/>
						</g>
						<path id="Shape" class="s2" d="m59.7 66.9l14.6-3.7 6.1 18.8zm33.6-24.3h-25.7l-7.9-24.2-7.9 24.2h-25.7l20.8 15-7.9 24.2 20.8-15 12.8-9.2z"/>
						<path class="s2" d="m163.7 66.9l14.6-3.7 6.1 18.8zm33.6-24.3h-25.7l-7.9-24.2-7.9 24.2h-25.7l20.8 15-7.9 24.2 20.8-15 12.8-9.2z"/>
						<path class="s2" d="m267.7 66.9l14.6-3.7 6.1 18.8zm33.6-24.3h-25.7l-7.9-24.2-7.9 24.2h-25.7l20.8 15-7.9 24.2 20.8-15 12.8-9.2z"/>
						<path class="s2" d="m371.7 66.9l14.6-3.7 6.1 18.8zm33.6-24.3h-25.7l-7.9-24.2-7.9 24.2h-25.7l20.8 15-7.9 24.2 20.8-15 12.8-9.2z"/>
						<path class="s2" d="m475.7 66.9l14.6-3.7 6.1 18.8zm33.6-24.3h-25.7l-7.9-24.2-7.9 24.2h-25.7l20.8 15-7.9 24.2 20.8-15 12.8-9.2z"/>
					</g>
				</g>
			</g>
		</g>
	</g>
</svg>